<mxfile host="app.diagrams.net" agent="Mozilla/5.0 (X11; Linux x86_64) AppleWebKit/537.36 (KHTML, like Gecko) Chrome/138.0.0.0 Safari/537.36" version="28.0.7">
  <diagram name="Page-1" id="cSjFrMsoXzucoti7D4QO">
    <mxGraphModel dx="844" dy="591" grid="1" gridSize="10" guides="1" tooltips="1" connect="1" arrows="1" fold="1" page="1" pageScale="1" pageWidth="850" pageHeight="1100" math="0" shadow="0">
      <root>
        <mxCell id="0" />
        <mxCell id="1" parent="0" />
        <mxCell id="saDV-E0BetmcDKzamTSy-1" value="Before" style="swimlane;whiteSpace=wrap;html=1;" vertex="1" parent="1">
          <mxGeometry x="60" y="130" width="620" height="270" as="geometry" />
        </mxCell>
        <mxCell id="saDV-E0BetmcDKzamTSy-13" style="edgeStyle=orthogonalEdgeStyle;rounded=0;orthogonalLoop=1;jettySize=auto;html=1;entryX=0.5;entryY=0;entryDx=0;entryDy=0;fillColor=#f8cecc;strokeColor=#b85450;strokeWidth=2;" edge="1" parent="saDV-E0BetmcDKzamTSy-1" source="saDV-E0BetmcDKzamTSy-2" target="saDV-E0BetmcDKzamTSy-7">
          <mxGeometry relative="1" as="geometry" />
        </mxCell>
        <mxCell id="saDV-E0BetmcDKzamTSy-14" style="edgeStyle=orthogonalEdgeStyle;rounded=0;orthogonalLoop=1;jettySize=auto;html=1;entryX=0.5;entryY=0;entryDx=0;entryDy=0;fillColor=#ffe6cc;strokeColor=#d79b00;strokeWidth=2;" edge="1" parent="saDV-E0BetmcDKzamTSy-1" source="saDV-E0BetmcDKzamTSy-2" target="saDV-E0BetmcDKzamTSy-9">
          <mxGeometry relative="1" as="geometry">
            <Array as="points">
              <mxPoint x="500" y="140" />
            </Array>
          </mxGeometry>
        </mxCell>
        <mxCell id="saDV-E0BetmcDKzamTSy-15" style="edgeStyle=orthogonalEdgeStyle;rounded=0;orthogonalLoop=1;jettySize=auto;html=1;entryX=0.5;entryY=0;entryDx=0;entryDy=0;fillColor=#dae8fc;strokeColor=#6c8ebf;strokeWidth=2;" edge="1" parent="saDV-E0BetmcDKzamTSy-1" source="saDV-E0BetmcDKzamTSy-2" target="saDV-E0BetmcDKzamTSy-5">
          <mxGeometry relative="1" as="geometry">
            <Array as="points">
              <mxPoint x="110" y="140" />
            </Array>
          </mxGeometry>
        </mxCell>
        <mxCell id="saDV-E0BetmcDKzamTSy-2" value="&lt;div&gt;&lt;b&gt;&amp;lt;Hero&lt;/b&gt;&amp;nbsp;&lt;b&gt;/&amp;gt;&lt;/b&gt;&lt;/div&gt;&lt;br&gt;«Decides which seasonal Hero to render»&lt;div&gt;&lt;br/&gt;&lt;/div&gt;" style="html=1;dropTarget=0;whiteSpace=wrap;" vertex="1" parent="saDV-E0BetmcDKzamTSy-1">
          <mxGeometry x="185" y="50" width="240" height="90" as="geometry" />
        </mxCell>
        <mxCell id="saDV-E0BetmcDKzamTSy-3" value="" style="shape=module;jettyWidth=8;jettyHeight=4;" vertex="1" parent="saDV-E0BetmcDKzamTSy-2">
          <mxGeometry x="1" width="20" height="20" relative="1" as="geometry">
            <mxPoint x="-27" y="7" as="offset" />
          </mxGeometry>
        </mxCell>
        <mxCell id="saDV-E0BetmcDKzamTSy-5" value="&lt;p style=&quot;margin:0px;margin-top:6px;text-align:center;&quot;&gt;&lt;b&gt;Winter Hero&lt;/b&gt;&lt;/p&gt;&lt;hr size=&quot;1&quot; style=&quot;border-style:solid;&quot;&gt;&lt;p style=&quot;margin:0px;margin-left:8px;&quot;&gt;Renders full component with &lt;i&gt;Winter&lt;/i&gt; information&lt;/p&gt;" style="align=left;overflow=fill;html=1;dropTarget=0;whiteSpace=wrap;fillColor=#dae8fc;strokeColor=#6c8ebf;strokeWidth=2;" vertex="1" parent="saDV-E0BetmcDKzamTSy-1">
          <mxGeometry x="20" y="180" width="180" height="70" as="geometry" />
        </mxCell>
        <mxCell id="saDV-E0BetmcDKzamTSy-6" value="" style="shape=component;jettyWidth=8;jettyHeight=4;" vertex="1" parent="saDV-E0BetmcDKzamTSy-5">
          <mxGeometry x="1" width="20" height="20" relative="1" as="geometry">
            <mxPoint x="-24" y="4" as="offset" />
          </mxGeometry>
        </mxCell>
        <mxCell id="saDV-E0BetmcDKzamTSy-7" value="&lt;p style=&quot;margin:0px;margin-top:6px;text-align:center;&quot;&gt;&lt;b&gt;Summer Hero&lt;/b&gt;&lt;/p&gt;&lt;hr size=&quot;1&quot; style=&quot;border-style:solid;&quot;&gt;&lt;p style=&quot;margin:0px;margin-left:8px;&quot;&gt;Renders full component with &lt;i&gt;Summer&lt;/i&gt; information&lt;/p&gt;" style="align=left;overflow=fill;html=1;dropTarget=0;whiteSpace=wrap;fillColor=#f8cecc;strokeColor=#b85450;strokeWidth=2;" vertex="1" parent="saDV-E0BetmcDKzamTSy-1">
          <mxGeometry x="215" y="180" width="180" height="70" as="geometry" />
        </mxCell>
        <mxCell id="saDV-E0BetmcDKzamTSy-8" value="" style="shape=component;jettyWidth=8;jettyHeight=4;" vertex="1" parent="saDV-E0BetmcDKzamTSy-7">
          <mxGeometry x="1" width="20" height="20" relative="1" as="geometry">
            <mxPoint x="-24" y="4" as="offset" />
          </mxGeometry>
        </mxCell>
        <mxCell id="saDV-E0BetmcDKzamTSy-9" value="&lt;p style=&quot;margin:0px;margin-top:6px;text-align:center;&quot;&gt;&lt;b&gt;Fall Hero&lt;/b&gt;&lt;/p&gt;&lt;hr size=&quot;1&quot; style=&quot;border-style:solid;&quot;&gt;&lt;p style=&quot;margin:0px;margin-left:8px;&quot;&gt;Renders full component with &lt;i&gt;Fall&lt;/i&gt; information&lt;/p&gt;" style="align=left;overflow=fill;html=1;dropTarget=0;whiteSpace=wrap;fillColor=#ffe6cc;strokeColor=#d79b00;strokeWidth=2;" vertex="1" parent="saDV-E0BetmcDKzamTSy-1">
          <mxGeometry x="410" y="180" width="180" height="70" as="geometry" />
        </mxCell>
        <mxCell id="saDV-E0BetmcDKzamTSy-10" value="" style="shape=component;jettyWidth=8;jettyHeight=4;" vertex="1" parent="saDV-E0BetmcDKzamTSy-9">
          <mxGeometry x="1" width="20" height="20" relative="1" as="geometry">
            <mxPoint x="-24" y="4" as="offset" />
          </mxGeometry>
        </mxCell>
        <mxCell id="saDV-E0BetmcDKzamTSy-16" value="After" style="swimlane;whiteSpace=wrap;html=1;" vertex="1" parent="1">
          <mxGeometry x="60" y="420" width="620" height="360" as="geometry" />
        </mxCell>
        <mxCell id="saDV-E0BetmcDKzamTSy-34" style="edgeStyle=orthogonalEdgeStyle;rounded=0;orthogonalLoop=1;jettySize=auto;html=1;entryX=0.5;entryY=0;entryDx=0;entryDy=0;fillColor=#ffe6cc;strokeColor=#d79b00;strokeWidth=2;" edge="1" parent="saDV-E0BetmcDKzamTSy-16" source="saDV-E0BetmcDKzamTSy-17" target="saDV-E0BetmcDKzamTSy-31">
          <mxGeometry relative="1" as="geometry">
            <Array as="points">
              <mxPoint x="330" y="140" />
              <mxPoint x="330" y="140" />
            </Array>
          </mxGeometry>
        </mxCell>
        <mxCell id="saDV-E0BetmcDKzamTSy-35" style="edgeStyle=orthogonalEdgeStyle;rounded=0;orthogonalLoop=1;jettySize=auto;html=1;entryX=0.5;entryY=0;entryDx=0;entryDy=0;fillColor=#f8cecc;strokeColor=#b85450;strokeWidth=2;" edge="1" parent="saDV-E0BetmcDKzamTSy-16" source="saDV-E0BetmcDKzamTSy-17" target="saDV-E0BetmcDKzamTSy-29">
          <mxGeometry relative="1" as="geometry">
            <Array as="points">
              <mxPoint x="260" y="140" />
              <mxPoint x="260" y="140" />
            </Array>
          </mxGeometry>
        </mxCell>
        <mxCell id="saDV-E0BetmcDKzamTSy-36" style="edgeStyle=orthogonalEdgeStyle;rounded=0;orthogonalLoop=1;jettySize=auto;html=1;entryX=0.5;entryY=0;entryDx=0;entryDy=0;fillColor=#dae8fc;strokeColor=#6c8ebf;strokeWidth=2;" edge="1" parent="saDV-E0BetmcDKzamTSy-16" source="saDV-E0BetmcDKzamTSy-17" target="saDV-E0BetmcDKzamTSy-27">
          <mxGeometry relative="1" as="geometry">
            <Array as="points">
              <mxPoint x="70" y="140" />
            </Array>
          </mxGeometry>
        </mxCell>
        <mxCell id="saDV-E0BetmcDKzamTSy-17" value="&lt;div&gt;&lt;b&gt;&amp;lt;Hero&lt;/b&gt;&amp;nbsp;&lt;b&gt;/&amp;gt;&lt;/b&gt;&lt;/div&gt;&lt;br&gt;«Decides which seasonal Hero to render»&lt;div&gt;&lt;br/&gt;&lt;/div&gt;" style="html=1;dropTarget=0;whiteSpace=wrap;" vertex="1" parent="saDV-E0BetmcDKzamTSy-16">
          <mxGeometry x="80" y="50" width="240" height="90" as="geometry" />
        </mxCell>
        <mxCell id="saDV-E0BetmcDKzamTSy-18" value="" style="shape=module;jettyWidth=8;jettyHeight=4;" vertex="1" parent="saDV-E0BetmcDKzamTSy-17">
          <mxGeometry x="1" width="20" height="20" relative="1" as="geometry">
            <mxPoint x="-27" y="7" as="offset" />
          </mxGeometry>
        </mxCell>
        <mxCell id="saDV-E0BetmcDKzamTSy-45" style="edgeStyle=orthogonalEdgeStyle;rounded=0;orthogonalLoop=1;jettySize=auto;html=1;entryX=0.25;entryY=0;entryDx=0;entryDy=0;fillColor=#dae8fc;strokeColor=#6c8ebf;strokeWidth=2;" edge="1" parent="saDV-E0BetmcDKzamTSy-16" source="saDV-E0BetmcDKzamTSy-27" target="saDV-E0BetmcDKzamTSy-41">
          <mxGeometry relative="1" as="geometry" />
        </mxCell>
        <mxCell id="saDV-E0BetmcDKzamTSy-27" value="&lt;b&gt;&amp;nbsp;Winter Hero&lt;/b&gt;" style="html=1;dropTarget=0;whiteSpace=wrap;align=left;fillColor=#dae8fc;strokeColor=#6c8ebf;strokeWidth=2;" vertex="1" parent="saDV-E0BetmcDKzamTSy-16">
          <mxGeometry x="10" y="190" width="120" height="30" as="geometry" />
        </mxCell>
        <mxCell id="saDV-E0BetmcDKzamTSy-28" value="" style="shape=module;jettyWidth=8;jettyHeight=4;" vertex="1" parent="saDV-E0BetmcDKzamTSy-27">
          <mxGeometry x="1" width="20" height="20" relative="1" as="geometry">
            <mxPoint x="-27" y="7" as="offset" />
          </mxGeometry>
        </mxCell>
        <mxCell id="saDV-E0BetmcDKzamTSy-46" style="edgeStyle=orthogonalEdgeStyle;rounded=0;orthogonalLoop=1;jettySize=auto;html=1;entryX=0.5;entryY=0;entryDx=0;entryDy=0;fillColor=#f8cecc;strokeColor=#b85450;strokeWidth=2;" edge="1" parent="saDV-E0BetmcDKzamTSy-16" source="saDV-E0BetmcDKzamTSy-29" target="saDV-E0BetmcDKzamTSy-41">
          <mxGeometry relative="1" as="geometry" />
        </mxCell>
        <mxCell id="saDV-E0BetmcDKzamTSy-29" value="&lt;b&gt;&amp;nbsp;Summer Hero&lt;/b&gt;" style="html=1;dropTarget=0;whiteSpace=wrap;align=left;fillColor=#f8cecc;strokeColor=#b85450;strokeWidth=2;" vertex="1" parent="saDV-E0BetmcDKzamTSy-16">
          <mxGeometry x="140" y="190" width="120" height="30" as="geometry" />
        </mxCell>
        <mxCell id="saDV-E0BetmcDKzamTSy-30" value="" style="shape=module;jettyWidth=8;jettyHeight=4;" vertex="1" parent="saDV-E0BetmcDKzamTSy-29">
          <mxGeometry x="1" width="20" height="20" relative="1" as="geometry">
            <mxPoint x="-27" y="7" as="offset" />
          </mxGeometry>
        </mxCell>
        <mxCell id="saDV-E0BetmcDKzamTSy-44" style="edgeStyle=orthogonalEdgeStyle;rounded=0;orthogonalLoop=1;jettySize=auto;html=1;entryX=0.75;entryY=0;entryDx=0;entryDy=0;fillColor=#ffe6cc;strokeColor=#d79b00;strokeWidth=2;" edge="1" parent="saDV-E0BetmcDKzamTSy-16" source="saDV-E0BetmcDKzamTSy-31" target="saDV-E0BetmcDKzamTSy-41">
          <mxGeometry relative="1" as="geometry" />
        </mxCell>
        <mxCell id="saDV-E0BetmcDKzamTSy-31" value="&lt;b&gt;&amp;nbsp;Fall Hero&lt;/b&gt;" style="html=1;dropTarget=0;whiteSpace=wrap;align=left;fillColor=#ffe6cc;strokeColor=#d79b00;strokeWidth=2;" vertex="1" parent="saDV-E0BetmcDKzamTSy-16">
          <mxGeometry x="270" y="190" width="120" height="30" as="geometry" />
        </mxCell>
        <mxCell id="saDV-E0BetmcDKzamTSy-32" value="" style="shape=module;jettyWidth=8;jettyHeight=4;" vertex="1" parent="saDV-E0BetmcDKzamTSy-31">
          <mxGeometry x="1" width="20" height="20" relative="1" as="geometry">
            <mxPoint x="-27" y="7" as="offset" />
          </mxGeometry>
        </mxCell>
        <mxCell id="saDV-E0BetmcDKzamTSy-33" value="&lt;b&gt;Seasonal Hero Component&lt;/b&gt;&lt;div&gt;- Defines Seasonal Information&lt;/div&gt;&lt;div&gt;- Creates an &lt;b&gt;Abstract Hero&lt;/b&gt;&lt;/div&gt;&lt;div&gt;component&amp;nbsp;&lt;span style=&quot;background-color: transparent; color: light-dark(rgb(0, 0, 0), rgb(255, 255, 255));&quot;&gt;with that information&lt;/span&gt;&lt;/div&gt;" style="strokeWidth=2;html=1;shape=mxgraph.flowchart.annotation_2;align=left;labelPosition=right;pointerEvents=1;" vertex="1" parent="saDV-E0BetmcDKzamTSy-16">
          <mxGeometry x="400" y="155" width="40" height="100" as="geometry" />
        </mxCell>
        <mxCell id="saDV-E0BetmcDKzamTSy-41" value="&lt;div&gt;&lt;b style=&quot;background-color: transparent; color: light-dark(rgb(0, 0, 0), rgb(255, 255, 255));&quot;&gt;Abstract Hero&lt;/b&gt;&lt;/div&gt;&lt;div&gt;&lt;b&gt;&lt;br&gt;&lt;/b&gt;«Renders full component &lt;b&gt;dynamically&lt;/b&gt;&amp;nbsp;with provided seasonal information»&lt;/div&gt;" style="html=1;dropTarget=0;whiteSpace=wrap;" vertex="1" parent="saDV-E0BetmcDKzamTSy-16">
          <mxGeometry x="40" y="270" width="320" height="75" as="geometry" />
        </mxCell>
        <mxCell id="saDV-E0BetmcDKzamTSy-42" value="" style="shape=module;jettyWidth=8;jettyHeight=4;" vertex="1" parent="saDV-E0BetmcDKzamTSy-41">
          <mxGeometry x="1" width="20" height="20" relative="1" as="geometry">
            <mxPoint x="-27" y="7" as="offset" />
          </mxGeometry>
        </mxCell>
      </root>
    </mxGraphModel>
  </diagram>
</mxfile>
